<svg width="453" height="223" viewBox="0 0 453 223" fill="none" xmlns="http://www.w3.org/2000/svg">
<path d="M109.36 0H201L196.32 22.06H140.41L137.48 35.88H188.94L177.91 57.94H132.78L125.87 90.53H90.1099L109.36 0Z" fill="white"/>
<path d="M204.7 0H240.44L221.21 90.52H185.46L204.7 0Z" fill="white"/>
<path d="M269.23 36.74L257.81 90.52H293.56L306.33 30.45C296.13 30.03 282.65 31.68 269.24 36.74H269.23Z" fill="white"/>
<path d="M244.14 0L239.09 22.82H341.54L346.41 0H244.14Z" fill="white"/>
<path d="M420.4 0H350.12L330.85 90.52H366.6L381.31 22.87H404.38C413.38 22.87 416.17 25.66 414.78 32.51C413.39 39.1 409.33 41.89 400.33 41.89H394.21C388.54 47.74 383.7 53.92 378.23 63.95H410.86C436.22 63.95 448.26 48.94 451.94 31.57C456.24 11.41 440.45 0 420.4 0Z" fill="white"/>
<mask id="mask0_2006_844" style="mask-type:luminance" maskUnits="userSpaceOnUse" x="277" y="53" width="173" height="164">
<g clip-path="url(#clip0_2006_844)">
<rect width="171.93" height="162.44" transform="translate(277.3 53.99)" fill="white"/>
<path d="M398.34 127.52C410.29 151.77 394.97 184.99 364.12 201.71C333.27 218.43 298.56 212.33 286.61 188.08C274.66 163.83 289.98 130.61 320.83 113.89C351.68 97.17 386.39 103.27 398.34 127.52Z" fill="black"/>
<path d="M397.59 136.46C404.32 158.68 383.12 186.61 350.25 198.85C317.38 211.09 285.27 203 278.54 180.78C271.81 158.56 293.01 130.63 325.88 118.39C358.75 106.15 390.86 114.24 397.59 136.46Z" fill="black"/>
<path d="M406.52 128.03C392.65 136.49 378.11 141.54 365.14 143.09C363.61 145.69 361.64 148.07 359.31 150.14C373.64 149.57 390.51 144.35 406.47 134.61C432.65 118.63 448.25 95.51 446.32 78.04C444.35 94.43 429.53 114 406.52 128.02V128.03Z" fill="black" stroke="black" stroke-width="5.51" stroke-miterlimit="10"/>
</g>
</mask>
<g mask="url(#mask0_2006_844)">
<path d="M406.36 125.59C419.45 152.23 403.16 188.43 369.99 206.44C336.81 224.45 299.31 217.46 286.22 190.81C273.13 164.17 289.42 127.97 322.59 109.96C355.77 91.95 393.27 98.94 406.36 125.59Z" fill="white"/>
</g>
<path d="M321.61 119.3C321.87 123.06 322.95 126.58 324.9 129.76C336.08 147.8 371.48 147.81 404.01 129.77C427.54 116.73 443.08 97.81 445.67 81.52C446.93 99.05 430.47 121.49 403.7 136.35C371.18 154.39 335.77 154.38 324.61 136.33C321.51 131.37 320.61 125.51 321.61 119.3Z" fill="#D21317"/>
<path d="M359.67 198.39C359.85 194.63 359.22 191 357.64 187.63C348.7 168.51 313.56 164.73 279.12 179.2C254.2 189.68 236.52 206.83 232.01 222.75C232.84 205.18 251.85 184.61 280.2 172.7C314.62 158.22 349.78 162 358.71 181.13C361.19 186.41 361.39 192.31 359.66 198.39H359.67Z" fill="#008C3C"/>
<path d="M43.0301 99.64H61.5001L60.5501 104.09H49.2801L48.6901 106.88H59.0601L58.1101 111.33H47.7401L46.3301 117.9H39.1201L43.0001 99.66L43.0301 99.64Z" fill="white"/>
<path d="M64.3702 99.64H83.7602L82.8102 104.09H70.6202L70.0802 106.54H81.4002L80.4502 110.99H69.1302L68.6202 113.44H80.8102L79.8602 117.89H60.4702L64.3502 99.65L64.3702 99.64Z" fill="white"/>
<path d="M86.7399 99.64H100.77C106.95 99.64 109.71 102.04 108.28 108.76C106.93 115.17 103.09 117.88 97.0399 117.88H82.8599L86.7399 99.64ZM91.0399 113.28H95.1799C98.4799 113.28 100.16 111.64 100.78 108.76C101.39 105.87 100.42 104.24 97.1299 104.24H92.9899L91.0499 113.29L91.0399 113.28Z" fill="white"/>
<path d="M113.23 99.64H132.62L131.67 104.09H119.48L118.94 106.54H130.26L129.31 110.99H117.99L117.48 113.44H129.67L128.72 117.89H109.33L113.21 99.65L113.23 99.64Z" fill="white"/>
<path d="M135.71 99.64H150.89C152.96 99.64 154.16 99.82 155.06 100.3C156.29 100.96 157.03 102.73 156.59 104.72C156.23 106.43 155.13 108.27 152.91 108.88L152.88 108.93C153.9 109.24 154.57 110.16 154.36 111.74L153.82 115.73C153.72 116.55 153.92 117.31 154.25 117.88H146.38C146.23 117.34 146.41 116.55 146.74 114.43C146.94 113.08 146.66 112.26 145.33 112.26H140.22L139.02 117.88H131.81L135.69 99.64H135.71ZM141.2 107.66H146.31C147.72 107.66 148.43 107.1 148.66 105.95C148.97 104.57 148.15 104.24 146.95 104.24H141.94L141.2 107.66Z" fill="white"/>
<path d="M168.04 99.64H176.88L180.76 117.88H173.09L172.76 115.78H165.25L164.05 117.88H156.38L168.03 99.64H168.04ZM171.31 105.16H171.26L167.78 111.34H172.12L171.3 105.16H171.31Z" fill="white"/>
<path d="M183.56 114.02L196.59 104.23H186.39L187.36 99.63H207.27L206.43 103.62L193.68 113.28H204.08L203.11 117.88H182.74L183.56 114.02Z" fill="white"/>
<path d="M210.2 99.64H217.41L213.53 117.88H206.32L210.2 99.64Z" fill="white"/>
<path d="M232.21 99C236.58 99 244.63 99.31 242.61 108.76C240.59 118.21 232.44 118.52 228.07 118.52C223.7 118.52 215.65 118.21 217.67 108.76C219.69 99.31 227.84 99 232.21 99ZM229.04 113.92C231.98 113.92 234.15 112.46 234.94 108.76C235.73 105.05 234.17 103.6 231.24 103.6C228.31 103.6 226.13 105.06 225.34 108.76C224.55 112.47 226.11 113.92 229.05 113.92H229.04Z" fill="white"/>
<path d="M246.81 99.64H255.04L260.2 109.76H260.28L262.43 99.64H269.33L265.45 117.88H257.55L252.06 107.66H252.01L249.84 117.88H242.94L246.82 99.64H246.81Z" fill="white"/>
<path d="M272.21 99.64H291.6L290.65 104.09H278.46L277.92 106.54H289.24L288.29 110.99H276.97L276.46 113.44H288.65L287.7 117.89H268.31L272.19 99.65L272.21 99.64Z" fill="white"/>
<path d="M119.4 126.76H126.61L122.73 145H115.52L119.4 126.76Z" fill="white"/>
<path d="M135.03 131.36H128.36L129.33 126.76H149.87L148.9 131.36H142.23L139.32 145.01H132.11L135.02 131.36H135.03Z" fill="white"/>
<path d="M155.01 126.76H163.85L167.73 145H160.06L159.73 142.9H152.22L151.02 145H143.35L155 126.76H155.01ZM158.28 132.28H158.23L154.75 138.46H159.09L158.27 132.28H158.28Z" fill="white"/>
<path d="M174.57 126.76H181.78L178.94 140.1H190.11L189.06 145.01H170.69L174.57 126.77V126.76Z" fill="white"/>
<path d="M195.83 126.76H203.04L199.16 145H191.95L195.83 126.76Z" fill="white"/>
<path d="M213.84 126.76H222.68L226.56 145H218.89L218.56 142.9H211.05L209.85 145H202.18L213.83 126.76H213.84ZM217.11 132.28H217.06L213.58 138.46H217.92L217.1 132.28H217.11Z" fill="white"/>
<path d="M233.41 126.76H241.64L246.8 136.88H246.88L249.03 126.76H255.93L252.05 145H244.15L238.66 134.78H238.61L236.44 145H229.54L233.42 126.76H233.41Z" fill="white"/>
<path d="M266.57 126.76H275.41L279.29 145H271.62L271.29 142.9H263.78L262.58 145H254.91L266.56 126.76H266.57ZM269.84 132.28H269.79L266.31 138.46H270.65L269.83 132.28H269.84Z" fill="white"/>
<path d="M6.67 158.26H0L0.97 153.66H21.51L20.54 158.26H13.87L10.96 171.91H3.76L6.67 158.26Z" fill="white"/>
<path d="M24.4898 153.66H43.8798L42.9298 158.11H30.7398L30.1998 160.56H41.5198L40.5698 165.01H29.2498L28.7398 167.46H40.9298L39.9798 171.91H20.5898L24.4698 153.67L24.4898 153.66Z" fill="white"/>
<path d="M46.85 153.66H55.08L60.24 163.78H60.32L62.47 153.66H69.37L65.49 171.9H57.59L52.1 161.68H52.05L49.88 171.9H42.98L46.86 153.66H46.85Z" fill="white"/>
<path d="M72.3402 153.66H80.5702L85.7302 163.78H85.8102L87.9602 153.66H94.8602L90.9802 171.9H83.0802L77.5902 161.68H77.5402L75.3702 171.9H68.4702L72.3502 153.66H72.3402Z" fill="white"/>
<path d="M97.7799 153.66H104.99L101.11 171.9H93.8999L97.7799 153.66Z" fill="white"/>
<path d="M110.64 164.16C107.24 163.62 106.22 161.58 106.76 159.02C107.76 154.29 112.66 153.02 118.59 153.02C126.72 153.02 129.6 155.14 129.04 159H120.66C120.84 158.26 120.48 157.8 119.87 157.54C119.31 157.26 118.52 157.16 117.72 157.16C115.57 157.16 114.7 157.7 114.55 158.46C114.45 158.97 114.6 159.3 115.29 159.41L123.62 160.69C127.15 161.23 129.04 162.91 128.37 166C127.42 170.45 123.36 172.54 115.26 172.54C109.72 172.54 103.81 171.77 104.94 166.41H113.63C113.53 167.02 113.66 167.43 114.12 167.71C114.61 167.97 115.37 168.09 116.5 168.09C118.75 168.09 119.49 167.48 119.67 166.61C119.77 166.07 119.57 165.54 118.62 165.38L110.65 164.15L110.64 164.16Z" fill="white"/>
<path d="M160.51 153.66H175.38C180.49 153.66 181.9 155.96 181.03 160.02C180.29 163.52 177.86 166.23 172.75 166.23H165.03L163.83 171.9H156.62L160.5 153.66H160.51ZM165.97 161.78H170.62C172.43 161.78 173.25 161.22 173.53 159.89C173.81 158.51 173.25 157.95 171.43 157.95H166.78L165.96 161.78H165.97Z" fill="white"/>
<path d="M189.04 153.66H197.88L201.76 171.9H194.09L193.76 169.8H186.25L185.05 171.9H177.38L189.03 153.66H189.04ZM192.31 159.18H192.26L188.78 165.36H193.12L192.3 159.18H192.31Z" fill="white"/>
<path d="M208.53 153.66H222.56C228.74 153.66 231.5 156.06 230.07 162.78C228.72 169.19 224.88 171.9 218.83 171.9H204.65L208.53 153.66ZM212.83 167.3H216.97C220.27 167.3 221.95 165.66 222.57 162.78C223.18 159.89 222.21 158.26 218.92 158.26H214.78L212.84 167.31L212.83 167.3Z" fill="white"/>
<path d="M235.01 153.66H254.4L253.45 158.11H241.26L240.72 160.56H252.04L251.09 165.01H239.77L239.26 167.46H251.45L250.5 171.91H231.11L234.99 153.67L235.01 153.66Z" fill="white"/>
<path d="M257.27 153.66H264.48L261.64 167H272.81L271.76 171.91H253.39L257.27 153.67V153.66Z" fill="white"/>
<path d="M150.46 160.88C150.1 160.12 149.58 159.48 148.92 158.97C148.27 158.47 147.47 158.08 146.56 157.84C145.65 157.6 144.63 157.47 143.54 157.47C142.19 157.47 140.96 157.71 139.87 158.17C138.78 158.63 137.85 159.27 137.1 160.05C136.35 160.83 135.76 161.74 135.35 162.75C134.94 163.76 134.73 164.82 134.73 165.91C134.73 166.9 134.9 167.78 135.25 168.52C135.59 169.27 136.08 169.9 136.71 170.41C137.33 170.92 138.09 171.3 138.97 171.54C139.84 171.79 140.82 171.91 141.88 171.91C143.02 171.91 144.03 171.81 144.9 171.62C145.77 171.43 146.55 171.13 147.21 170.73C147.87 170.33 148.45 169.83 148.92 169.25C149.24 168.86 149.52 168.41 149.78 167.93H144.69C144.59 168.02 144.5 168.13 144.38 168.21C144.15 168.37 143.87 168.51 143.55 168.61C143.24 168.71 142.88 168.77 142.48 168.77C141.37 168.77 140.54 168.54 140.01 168.09C139.49 167.64 139.24 167.08 139.24 166.36V165.82C139.24 165.82 139.24 165.8 139.24 165.79H150.73L150.76 165.63C150.92 164.88 151.01 164.16 151.01 163.5C151.01 162.51 150.83 161.63 150.46 160.87V160.88ZM139.83 163.08C139.96 162.81 140.11 162.56 140.27 162.31C140.49 161.99 140.76 161.7 141.08 161.45C141.4 161.2 141.79 161.01 142.23 160.86C142.67 160.71 143.19 160.64 143.77 160.64C144.35 160.64 144.85 160.72 145.2 160.87C145.55 161.02 145.81 161.22 145.99 161.46C146.17 161.71 146.3 161.99 146.36 162.3C146.41 162.56 146.45 162.82 146.46 163.08H139.82H139.83Z" fill="white"/>
<defs>
<clipPath id="clip0_2006_844">
<rect width="171.93" height="162.44" fill="white" transform="translate(277.3 53.99)"/>
</clipPath>
</defs>
</svg>
